<svg xmlns="http://www.w3.org/2000/svg" width="328.671" height="1955.996" viewBox="0 0 328.671 1955.996"><g transform="translate(-10.33 -15.39)"><path d="M198.806,7.646C30.585,91.756-11.47,160.574,19.116,225.568s214.1,15.293,122.342,149.1S-30.585,581.124,38.232,600.24,324.971,676.7,221.745,783.753s30.585,91.756,30.585,91.756-22.939,359.379-164.4,145.281,30.585,493.191-49.7,382.318-53.525,233.214,26.762,183.513,156.75-355.556,187.336-183.513,34.409,317.324-80.287,351.733S7.646,1907.768,19.116,1907.768s122.342,49.7,122.342,49.7L313.5,1865.713V259.976l-91.756-99.4L313.5,84.11,267.623,7.646Z" transform="translate(23 11)" fill="#e7739a"/><path d="M199.727,4.39l.378.756h66.277v1.8L269.128,5.3l46.356,77.259L313.57,83.7l1.772,2.126-89.976,74.98,90.142,97.654-1.909,1.762H316V1866.992h-3.267l.816,1.529L141.3,1960.387l-2.353-4.412L311,1864.213V260.954l-90.836-98.406,1.544-1.425-1.856-2.227,90.4-75.336L266.207,10.146H197l.483.956-4.467,2.258L190.763,8.9l4.467-2.258,1.075,2.128V5.146h1.91ZM164.1,22.9l2.4,4.386-4.391,2.4-2.4-4.386Zm-13.166,7.3,2.474,4.345-4.348,2.474-4.328,2.5-4.3,2.52L137.9,37.722l4.32-2.529,1.041,1.777-1.03-1.784,4.335-2.5,1.586,2.748-1.569-2.757Zm-38.67,23.388,2.747,4.178-4.179,2.747-4.148,2.779L103.9,59.137l4.158-2.786,1.7,2.54-1.679-2.554ZM85.43,72.257l2.992,4.006,0,0-2,1.5h0l-3.95,3.025-3.91,3.073-3.868,3.125L71.544,83.1l3.894-3.146L77.011,81.9l-1.547-1.968L79.4,76.836l1.538,1.957-1.513-1.976L83.4,73.774l1.517,1.982-1.494-2Zm-43.361,38.5,3.743,3.315-3.319,3.747L38.75,114.5Zm-6.629,7.68,3.914,3.112-3.112,3.914-2.956,3.952-4-2.994,3-4.009,1.967,1.471-1.922-1.528ZM27.8,128.53l4.1,2.865,0,0-1.43,2.046L27.8,137.562l-2.519,4.216-2.344,4.306L20.768,150.5l-4.49-2.2,2.2-4.495,2.192,1.074-2.143-1.167,2.394-4.4,2.328,1.267-2.274-1.359,2.568-4.3,2.019,1.206-1.972-1.28,2.725-4.2,2.209,1.433-2.157-1.508ZM9.529,167.809l4.9.974-.962,4.848-.66,4.809-.365,4.832-.066,4.849.234,4.84.529,4.822.831,4.874-4.929.841L8.2,198.563l2.48-.423-2.5.275-.546-4.976,2.507-.275-2.52.122-.241-5,2.526-.122L7.38,188.13l.068-5.005,2.514.034-2.506-.189.377-4.991,2.5.189-2.483-.341.681-4.959,2.491.342-2.466-.489Zm6.862,44.139L18,216.6l1.855,4.608-4.638,1.868-1.87-4.643,2.318-.933-2.362.819-1.639-4.73Zm4.462,11.424,0,.005,1.039,2.274-.022.01,2.408,4.107L19.967,232.3l-2.531-4.319,2.244-1.315-2.332,1.066-1.042-2.279Zm113.57,51.193.005,0,2.336.891-.9,2.365,1-2.328,4.6,1.984-1.982,4.59-4.5-1.942v0l-2.341-.893Zm20.61,10.961,3.761,3.3-3.3,3.757-3.761-3.3Zm12.585,17.129,1.246,4.848-2.494.641,2.553-.269.525,4.978-2.519.265,2.523.053-.105,5-2.541-.054,2.512.318-.629,4.966-2.516-.319,2.472.532-1.053,4.894-2.557-.55,2.507.728-.7,2.406-4.8-1.394V329.7l.7-2.4,1.013-4.707.6-4.729.1-4.709-.488-4.627-1.189-4.625Zm-26.791,68.515L144.952,374l-2.83,4.128L138,375.3ZM123.68,395.776l4.074,2.9-2.9,4.078-1.3-.927,1.3.93-2.913,4.07-2.995-2.143,2.989,2.15-2.923,4.064-2.723-1.958L119,410.9l-2.932,4.057-2.53-1.829,2.526,1.834-2.941,4.05-2.351-1.708,2.348,1.712-2.95,4.044-4.04-2.946,2.95-4.044h0l2.938-4.047,2.93-4.053,2.919-4.058h0l2.913-4.071ZM61.39,480.4l4.024,2.967-2.97,4.029h0l-2.955,4.028h0l-2.942,4.037h0l-2.931,4.053-4.052-2.93,2.933-4.056,3.2,2.317-3.2-2.328,2.948-4.045,1.292.941-1.289-.945,2.96-4.036,1.034.759-1.032-.761Zm-20.538,28.49,4.119,2.834-2.837,4.124h0l-2.789,4.131h0l-2.74,4.15h0l-2.695,4.192h0l-2.621,4.21-4.245-2.643,2.646-4.249,1.53.953-1.516-.974,2.707-4.211,2.656,1.707-2.634-1.739,2.758-4.177,1.55,1.024L35.2,517.177l2.8-4.149,2.12,1.431-2.107-1.449ZM25.729,532.073l4.29,2.569,0,0-1.285,2.145h0l-2.455,4.3h0l-2.342,4.351h0l-2.2,4.414h0l-2.021,4.476h0l-1.789,4.544h0l-1.487,4.613h0l-1.082,4.661-.537,4.647.172,4.546,1.038,4.295,2.127,4.169-4.451,2.277-2.275-4.459,2.319-1.183-2.521.612-1.176-4.866,2.511-.607-2.562.1-.189-5,2.561-.1-2.527-.292.574-4.973,2.589.3-2.525-.586,1.132-4.876,2.409.559-2.345-.755,1.535-4.764,2.379.767-2.319-.913,1.834-4.657,2.347.924L15.15,552.27l2.06-4.562,2.319,1.047-2.273-1.134,2.235-4.479,2.389,1.192L19.53,543.07l2.372-4.408,2.157,1.161-2.125-1.214,2.483-4.347,2,1.142-1.974-1.182Zm-6.267,55.165,1.406,1.652,3.813,3.017-3.1,3.921-3.925-3.106,1.6-2.019-1.974,1.683-1.624-1.909Zm18.074,10.216,4.824,1.338-1.336,4.818L36.2,602.271ZM49.6,600.8l.005,0,2.409.67-.052.188.053-.188,4.82,1.35-.918,3.277.927-3.274,4.816,1.363L60.3,608.994l-4.812-1.362h0l-4.811-1.348h0l-2.414-.671Zm31.323,9.028,4.788,1.459-1.458,4.783-4.788-1.459Zm7.189,2.2.005,0,2.388.741-.814,2.624.828-2.619,4.773,1.509-1.507,4.767-4.761-1.5h0L86.63,616.8Zm26.253,8.594,4.724,1.655-.793,2.264.81-2.258,4.712,1.689-.837,2.334.854-2.328,4.7,1.725-.881,2.4.9-2.393,4.685,1.762-.9,2.4.924-2.4,2.338.9-1.8,4.665-.005,0-2.314-.892L126.81,630.4h0l-4.7-1.723L117.435,627h0l-4.724-1.656Zm23.583,8.666,4.655,1.842-.929,2.349.951-2.341,4.637,1.885-.95,2.337.973-2.328,4.619,1.929-1.928,4.614-4.6-1.922-4.611-1.874h0l-4.654-1.842Zm32.344,13.955,4.5,2.2-2.194,4.493-4.5-2.2Zm13.5,6.832,4.394,2.4-2.395,4.389-4.394-2.4Zm8.827,4.916,4.3,2.555-1.284,2.163,1.328-2.137,4.251,2.643L199.9,662.33l1.362-2.087,4.191,2.736-2.733,4.187-4.145-2.706h0l-4.208-2.616-4.3-2.555Zm25.2,17,3.859,3.188-3.185,3.855-3.859-3.188Zm11.435,10.184L232.7,685.8l-1.837,1.748,1.923-1.656,3.267,3.793-1.913,1.648,2-1.541,3.052,3.968L235.23,696.8l-2.982-3.877-3.181-3.693-3.442-3.617Zm15.533,20.511,2.165,4.514-2.269,1.088,2.355-.894,1.777,4.68-2.378.9,2.452-.684,1.344,4.822-2.442.681,2.5-.444.875,4.929-2.5.443,2.527-.195.385,4.991-2.53.195,2.536.056-.11,5-2.552-.057,2.534.3-.59,4.971-2.49-.3,2.45.52-1.04,4.9-2.472-.525,2.416.73-1.449,4.791-2.428-.734,2.362.917-1.813,4.666-2.357-.916,2.285,1.075L244.2,757.64l-2.267-1.067,2.194,1.2-2.409,4.388-2.191-1.2,2.119,1.321-1.325,2.126-4.243-2.646,0,0,1.31-2.1,2.338-4.26,2.06-4.378,1.746-4.494,1.389-4.595.993-4.678.562-4.729.1-4.754-.364-4.734-.832-4.682-1.28-4.59-1.7-4.471-2.134-4.448Zm-9.966,61.1,4.107,2.852-2.855,4.111-2.175-1.51,2.1,1.6-3.035,3.981-1.828-1.393,1.77,1.463-3.19,3.858-2.078-1.718,2.015,1.79-3.325,3.742-1.717-1.526,1.666,1.579-3.443,3.633-3.629-3.439,3.442-3.632,3.268-3.678h0l3.132-3.788,2.972-3.9Zm-22.521,26.4,3.736,3.323-3.327,3.74-3.736-3.323Zm-4.985,5.671,3.795,3.256,0,0-1.628,1.9h0l-3.15,3.825h0l-3.056,3.888h0l-2.951,3.965h0l-2.82,4.039h0l-2.671,4.132h0l-2.484,4.224h0l-2.251,4.324h0l-1.961,4.437h0l-1.575,4.521-1.077,4.587-.428,4.587.386,4.466,1.326,4.179,2.283,3.736,3.122,3.2,3.757,2.647,4.188,2.136,4.465,1.695,4.648,1.327h0l4.762,1.019h0l4.832.758h0l4.877.536h0l4.907.343h0l4.927.172,4.953.017,4.961-.13,4.942-.276v0l4.9-.448.353,3.859,1.117.087-.389,4.99-3.423-.266,3.42.3-.433,4.987-2.594-.225,2.592.244-.469,4.983-2.239-.211,2.237.226-.5,4.98-2.224-.224,2.223.238-.534,4.977-2.253-.242,2.252.255-.564,4.974-2.642-.3,2.64.316-.594,4.97-2.56-.306,2.558.322-.624,4.966-2.579-.324,2.577.34-.654,4.963-2.809-.37,2.807.388-.685,4.958-3.261-.45,3.258.471-.716,4.954-1.8-.26,1.8.271-.747,4.949-2.49-.376,2.487.392-.78,4.944-3.124-.493,3.12.514-.813,4.939-1.937-.319,1.935.333-.848,4.933-2.742-.471,2.739.491-.883,4.927L242.1,956.1l2.378.445-.92,4.92-2.549-.477,2.545.5-.959,4.913-2.493-.486,2.489.507-1,4.9-2.5-.509,2.5.531-1.041,4.9-2.483-.528,2.478.55-1.085,4.887-2.474-.549,2.469.572-1.131,4.876-2.481-.575,2.475.6-1.18,4.865-2.469-.6,2.463.625-1.231,4.852-2.46-.624,2.453.652-1.286,4.838-2.457-.653,2.45.683-1.344,4.822-2.446-.682,2.438.713-1.405,4.8-2.434-.712,2.424.746-1.472,4.784-2.4-.739,2.391.775-1.543,4.762-2.44-.791,2.428.83-1.619,4.736-2.312-.79,2.3.831-1.7,4.707-2.47-.893,2.453.94-1.792,4.674-2.223-.852,2.206.9-1.89,4.635-2.438-.994,2.415,1.051-2,4.59-2.322-1.011,2.3,1.071-2.116,4.536-2.169-1.011,2.14,1.075-2.246,4.473-2.315-1.163,2.278,1.239-2.392,4.4-2.258-1.228,2.213,1.313-2.554,4.305-2.171-1.288,2.116,1.38-2.735,4.192-2.1-1.371,2.033,1.474-2.939,4.052-2.038-1.479,1.953,1.6-3.168,3.876-1.961-1.6,1.851,1.735-3.423,3.652-1.85-1.734,1.71,1.88-3.7,3.367-1.7-1.872,1.522,2.03-4,3-1.51-2.014,1.283,2.174-4.311,2.544-1.3-2.2,1.014,2.355-4.6,1.979-1.008-2.343.673,2.464-4.829,1.319-.675-2.472.308,2.545-4.97.6-.308-2.546-.06,2.561-5-.117.06-2.553-.4,2.516-4.945-.781.4-2.522-.691,2.451-4.818-1.36.692-2.453-.936,2.364-4.654-1.842.93-2.349-1.127,2.255-4.478-2.238,1.135-2.271-1.3,2.177-4.3-2.559,1.283-2.157-1.412,2.069-4.135-2.821,1.428-2.092-1.534,2.011-3.98-3.036,1.524-2-1.612,1.925-3.838-3.214,1.6-1.915-1.676,1.848-3.708-3.363,1.733-1.911-1.8,1.849-3.59-3.488,1.71-1.76-1.761,1.706-3.482-3.6,1.872-1.812-1.919,1.761-3.384-3.688,1.754-1.609-1.791,1.566-3.294-3.769,1.894-1.655-1.929,1.613-3.212-3.839,1.964-1.643-2,1.6-3.136-3.9,1.986-1.6-2.013,1.56-3.066-3.957,1.963-1.521-1.988,1.489-3-4.006,1.956-1.465-1.977,1.435L94.44,1034.7l1.962-1.425-1.981,1.4-2.885-4.091,2.064-1.455-2.082,1.429-2.832-4.127,2.271-1.559-2.289,1.531-2.783-4.16,4.156-2.78,2.783,4.16h0l2.817,4.105h0l2.866,4.065h0l2.92,4.022h0l2.978,3.975h0l3.041,3.924h0l3.109,3.867h0l3.181,3.8h0l3.259,3.728h0l3.341,3.642h0l3.437,3.549h0l3.534,3.434h0l3.646,3.306h0l3.762,3.15h0l3.89,2.967,4.02,2.742,4.158,2.474,4.3,2.149,4.436,1.756,4.548,1.283,4.624.73,4.645.108,4.591-.556,4.467-1.221,4.282-1.843,4.049-2.389,3.8-2.847,3.544-3.222,3.3-3.522,3.072-3.759,2.862-3.946,2.677-4.1h0l2.508-4.227h0l2.354-4.328h0l2.213-4.406h0l2.089-4.479h0l1.975-4.539h0l1.869-4.584h0l1.776-4.631h0l1.687-4.665h0l1.607-4.7h0l1.531-4.727h0l1.462-4.752h0l1.4-4.774h0l1.336-4.793h0l1.278-4.811h0l1.225-4.826h0l1.175-4.846,1.124-4.848h0l1.081-4.87,1.035-4.871h0l1-4.885h0l.955-4.9.917-4.9h0l.881-4.911h0l.845-4.916.811-4.923h0l.777-4.928h0l.745-4.929h0l.714-4.943h0l.683-4.945h0l.653-4.95.622-4.95h0l.593-4.958.564-4.971.532-4.96.5-4.963.468-4.965.431-4.97h0l.248-3.179-.875.08-.231-2.527.141,2.528-5,.279-.139-2.5.066,2.5-5,.131-.065-2.491-.008,2.492-5.006-.017.009-2.548-.089,2.547-5-.175.088-2.512-.175,2.509-4.993-.349.175-2.5-.274,2.5-4.976-.547.276-2.511-.392,2.5-4.945-.776.392-2.495-.529,2.474-4.895-1.047.529-2.474-.7,2.438-4.813-1.374.7-2.435-.9,2.376-4.68-1.776.9-2.375-1.16,2.274L193.59,870.2l1.16-2.274-1.479,2.1-4.092-2.884,1.486-2.108-1.858,1.816-3.5-3.584,1.859-1.813-2.226,1.363-2.61-4.272,2.23-1.362-2.488.793-1.514-4.772,2.49-.79-2.587.227-.431-4.987,2.561-.221-2.541-.237.465-4.984,2.553.238-2.481-.582,1.144-4.874,2.478.582-2.392-.833,1.647-4.727,2.388.832-2.306-1.019,2.023-4.578,2.359,1.043-2.282-1.188,2.311-4.44,2.188,1.139-2.122-1.248,2.537-4.315,2.171,1.276-2.112-1.366,2.718-4.2,2.186,1.413-2.132-1.489,2.866-4.1,1.966,1.373-1.922-1.43,2.989-4.015,2.091,1.557-2.048-1.61,3.093-3.936,1.859,1.461-1.824-1.5,3.182-3.864,1.946,1.6-1.913-1.641ZM46.523,977.446l4.942.8-.428,2.635,1.154-2.316,4.478,2.238-1.156,2.312,1.5-2.062,4.052,2.939-1.505,2.075,1.691-1.9,3.741,3.326-1.665,1.873,1.779-1.751,3.511,3.567-1.8,1.768,1.875-1.676,3.336,3.732-1.9,1.7,1.96-1.627,3.2,3.851-1.9,1.582,1.947-1.524,3.085,3.942L76.4,1004.5l2.041-1.522,2.992,4.013-2.007,1.5,2.034-1.456,2.913,4.071-2.022,1.447,2.045-1.413,2.845,4.119-2.017,1.393,2.036-1.364,2.785,4.159-4.154,2.782-2.785-4.159h0l-2.824-4.088h0L77.4,1009.94h0l-2.962-3.974h0l-3.05-3.9h0l-3.151-3.8h0l-3.276-3.665,0,0-3.427-3.483,0,0L57.925,987.9l0,0-3.855-2.8,0,0-4.034-2.016-3.861-.626-3.308,1.216-2.741,2.98-2.119,4.082.007,0-1.559,4.515h.005l-1.162,4.707h0l-.882,4.832h0l-.662,4.86h0l-.5,4.915h0l-.367,4.951h0l-.256,4.946h0l-.165,4.958h0l-.088,4.97h0l-.021,4.976h0l.038,4.98.089,4.982.135,4.984.175,4.985.212,4.986.245,4.987.275,4.987.3,4.988.328,4.986.35,4.978.371,4.979.391,4.98.409,4.982.425,4.984.441,4.983h0l.454,4.973.468,4.975h0l.48,4.978.492,4.979h0l.5,4.977.512,4.971L40,1148.95l.529,4.974.537,4.976.544,4.971.551,4.975.556,4.969h0l.562,4.973,1.138,9.943,1.153,9.941,1.165,9.941-4.966.583-.584-4.971,3-.352-3,.351-.581-4.971,3.046-.356-3.046.354-.578-4.972,3.465-.4-3.465.4-.575-4.972,2.628-.3-2.628.3-.571-4.973,1.939-.223-1.939.221-.567-4.973,3.985-.454-3.986.45-.562-4.974,3.4-.385-3.4.381-.556-4.975,2.078-.232-2.078.23-.551-4.975.964-.107-.965.106-.544-4.976,4.631-.506-4.632.5-.537-4.976,3.587-.387-3.588.382-.53-4.977,2.275-.242-2.276.238L34.5,1144.5l.678-.071-.679.07-.512-4.979,3.523-.363-3.524.356-.5-4.98,3.966-.4-3.967.392-.492-4.981,2.909-.287-2.91.281-.481-4.982,1.725-.167-1.726.162-.469-4.984.637-.06-.637.058-.455-4.985,3.974-.363-3.975.352-.441-4.986,3.717-.329-3.718.318-.426-4.988,2.991-.255-2.992.245-.409-4.989,2.3-.189-2.3.18-.391-4.99,1.7-.134-1.706.127-.372-4.992,1.266-.094-1.267.089-.351-4.993,3.1-.218-3.1.2-.328-4.995,3.346-.22-3.347.2-.3-5,3.056-.186-3.058.169-.276-5,2.838-.156-2.839.139-.246-5,2.677-.132-2.678.114-.213-5,2.614-.111-2.615.092-.176-5,2.587-.091-2.588.07-.135-5,2.578-.07-2.579.046-.089-5,2.558-.046-2.559.02-.038-5.006,2.5-.019-2.5-.01.021-5.005,2.384.01-2.385-.042.088-5,2.141.038-2.141-.071.167-5,2.152.072-2.152-.112.259-5,3.145.163-3.142-.233.37-4.992,2.585.192-2.581-.262.506-4.98,2.033.207-2.029-.276.676-4.96,2.891.394-2.876-.525.9-4.924,2.408.439-2.385-.589,1.2-4.86,2.38.588-2.332-.8,1.633-4.732,2.456.848-2.335-1.212,2.307-4.443,2.268,1.178L36.055,983.7l3.389-3.685,1.951,1.795-.949-2.573,4.7-1.728L46.1,980.1Zm.208,231.167,1.76,14.911-4.965.587-1.175-9.941,4.154-.491-4.154.489-.585-4.971Zm1.76,14.911.589,4.971-4.965.588-.588-4.971Zm.589,4.973.588,4.971-4.965.588-.589-4.971Zm.589,4.972.588,4.97h0l1.172,9.941-4.965.585-1.76-14.909Zm1.761,14.916.583,4.971-4.966.583-.584-4.971Zm.584,4.974.581,4.972-1.436.168,1.437-.167,1.152,9.943-4.967.573-1.151-9.936-.581-4.972Zm1.733,14.92.57,4.973-4.968.569-.57-4.973Zm.57,4.979.565,4.974-3.691.419,3.692-.415.559,4.974-1.556.175,1.557-.173.552,4.974.545,4.976-2.126.233,2.126-.229.537,4.977-4.971.536-.536-4.972-.544-4.968-.552-4.97h0l-.559-4.973-.565-4.973Zm2.76,24.894.527,4.978-3.955.419,3.956-.411.517,4.979-3.044.316,3.045-.309.505,4.98-2.4.243,2.4-.237.492,4.981-1.913.189,1.914-.183.478,4.983-1.688.162,1.688-.156.462,4.984-1.642.152,1.643-.146.444,4.986-1.762.157,1.763-.15.423,4.988-2.08.177,2.081-.167.4,4.99-2.633.211,2.634-.2.375,4.991-2.457.184,2.459-.17.345,4.994-2.989.206,2.991-.186.311,5-3.167.2,3.169-.172.272,5-3.175.173,3.178-.144.226,5-2.925.132,2.927-.1.171,5-2.409.082,2.411-.051.106,5-1.578.033,1.579-.008.025,5.006-3.312.017,3.314.051-.076,5-2.279-.035,2.28.1-.209,5-2.783-.116,2.782.219-.392,4.99-2.424-.191,2.42.323-.662,4.962-2.557-.341,2.537.578-1.111,4.881-2.375-.541,2.293,1.009-2.017,4.583-2.368-1.043,1.526,2.495-2.14,1.309-2.6-4.268h0l1.073-.657,1.756-3.99-.023-.005,1.063-4.667-.013,0,.644-4.824h-.006l.386-4.909h0l.206-4.929h0l.076-4.971h0l-.026-4.95-.1-4.97h0l-.171-4.98-.225-4.984h0l-.271-4.984-.31-4.982h0l-.344-4.979h0l-.374-4.979-.4-4.976h0l-.422-4.975-.443-4.974-.461-4.974-.477-4.974h0l-.492-4.975-.505-4.98-.516-4.974-.527-4.975Zm174.453,51.216,4.273,2.609-2.607,4.267-4.271-2.608Zm-12.5,1.076,2.661,4.233-4.237,2.664-2.662-4.232Zm18.989,3.939,0,0,1.665,1.865-1.93,1.722,2.164-1.349,2.648,4.248-4.244,2.644-2.647-4.248h0l-1.39-1.558Zm8.8,16.192,1.6,4.741-2.368.8,2.394-.706,1.416,4.8-2.459.725,2.478-.648,1.266,4.843-2.358.616,2.371-.556,1.143,4.873-2.538.6,2.549-.542,1.041,4.9-2.507.533,2.514-.488.954,4.914-2.382.462,2.387-.426.879,4.928-4.771.851,4.772-.837.865,4.93-2.048.359,2.049-.354.852,4.932-1.825.315,1.826-.311.839,4.935-3.7.63,3.706-.62.826,4.937-1.564.261,1.564-.257.811,4.939-2.712.446,2.714-.437.8,4.942-3.2.515,3.2-.505.781,4.944-1.184.187,1.184-.183.766,4.947-3.314.513,3.315-.5.749,4.949-2.911.441,2.913-.43.731,4.952-1.111.164,1.112-.16.714,4.954-3.578.515,3.579-.5.695,4.957-2.784.39,2.786-.379.675,4.96-1.155.157,1.156-.153.655,4.963-3.607.476,3.609-.461.634,4.965-2.782.355,2.784-.343.611,4.968-1.347.166,1.348-.16.588,4.971-4.965.588-.589-4.971-.608-4.942-.633-4.959h0L260.36,1470h0l-.674-4.951h0l-.694-4.952h0l-.711-4.94h0l-.732-4.952-.748-4.942-.764-4.937-.779-4.931h0l-.8-4.935h0l-.81-4.93-.825-4.934-.838-4.927-.851-4.925-.865-4.93h0l-.879-4.927h0l-.946-4.875h0l-1.032-4.854h0l-1.132-4.824h0l-1.25-4.78h0l-1.395-4.728h0l-1.573-4.647Zm-49.2,2.032,4.143,2.8-2.775,4.107h0l-2.711,4.208-4.2-2.708,2.711-4.208,2.312,1.489-2.28-1.54ZM33.079,1392.533l3.212,3.84-1.955,1.635,2.02-1.548,3.045,3.973-3.968,3.042-3.045-3.973h0l-3.144-3.759Zm151.19,1.47,4.345,2.475-2.477,4.349-4.345-2.474Zm-191.877,3.5,4.814,1.35-1.351,4.82-4.815-1.35Zm188.17,3.055,4.366,2.437,0,0-1.21,2.168h0l-2.4,4.373h0l-2.377,4.4h0l-2.359,4.415-4.41-2.356,2.359-4.415,2.889,1.544-2.881-1.559,2.381-4.4,1.819.984-1.813-1,2.408-4.388,2.369,1.3-2.36-1.318Zm-139.68,1.94,0,0,1.489,2.008-.007.005,3.141,3.678-.014.012,3.475,3.16-.018.02,3.879,1.734-2.04,4.565-4.571-2.044,1.1-2.464-1.717,1.888-3.7-3.368,1.729-1.9-1.926,1.645-3.25-3.807,1.938-1.655-2.035,1.509-1.492-2.013Zm125.456,24.594,4.434,2.31,0,0-1.154,2.215h0l-2.3,4.439h0l-2.295,4.445h0l-2.291,4.45-4.446-2.289,2.291-4.45,2.01,1.035-2.009-1.037,2.3-4.448.838.433-.838-.434,2.3-4.444,3.285,1.7-3.281-1.709ZM156,1447.123l4.447,2.285-2.288,4.452h0l-2.29,4.451-1.68-.864,1.68.865-2.293,4.449-2.415-1.244,2.413,1.248-2.3,4.447-2.537-1.311,2.535,1.316-2.306,4.443-2.48-1.287,2.478,1.292-2.315,4.438-2.215-1.155,2.212,1.161-2.326,4.432-2.309-1.212,2.305,1.219-2.339,4.426-2.321-1.227,2.317,1.234-2.354,4.418-2.2-1.175,2.2,1.183-2.371,4.409-2.091-1.125,2.086,1.134-1.2,2.2-4.393-2.387,0,0,1.188-2.187h0l2.366-4.4h0l2.35-4.411h0l2.336-4.419h0l2.323-4.427h0l2.313-4.434h0l2.3-4.44h0l2.3-4.444h0l2.292-4.447h0l2.289-4.45h0Zm-163.669.583.168,4.967.251,4.97.33,4.981-4.989.331-.331-4.995,2.578-.171-2.581.13-.252-5,2.569-.13-2.571.087-.17-5Zm1.151,19.834.479,4.958.55,4.943.621,4.935.691,4.924.763,4.919.832,4.892.452,2.44-4.916.911v-.005L-7.507,1498l2.5-.463-2.5.426-.839-4.935,2.487-.423-2.493.387-.767-4.946,2.511-.39-2.516.353-.7-4.957,2.476-.348-2.48.312-.625-4.966,2.564-.323-2.569.286-.554-4.975,2.395-.266-2.4.232-.481-4.982Zm136.984,28.286,4.382,2.409-2.411,4.386-4.382-2.408Zm-132.148,6.146.986,4.907-4.9.985-.986-4.908Zm2.6,12.156v.005l.569,2.43,1.215,4.819,1.3,4.786,1.389,4.763-4.8,1.4-1.4-4.805,2.512-.733-2.525.685-1.31-4.831,2.339-.634-2.35.593-1.224-4.854,2.547-.642-2.557.6-.571-2.44Zm109.526,16.191,4.222,2.678-2.681,4.227-2.349-1.49,2.331,1.518-2.732,4.194-4.19-2.729,2.717-4.172h0Zm161.469,3.919.3,5-2.741.163,2.742-.143.261,5-3.046.159,3.047-.136.224,5-2.364.106,2.365-.087.184,5-1.781.065,1.781-.051.142,5-5,.142-.142-4.977-.183-4.981-.223-4.993-.26-4.975-.3-5ZM13.878,1554.046,16,1558.577h0l2.253,4.368h0l2.433,4.252h0l1.285,2-4.207,2.7,0,0-1.351-2.1,2.119-1.361-2.183,1.249-2.486-4.345,2.208-1.263-2.258,1.165-2.295-4.449,2.3-1.185-2.34,1.1-2.125-4.532Zm259.245,10.327.054,5.005-2.45.026,2.45,0,.006,5.005-2.043,0,2.043.018-.044,5.005-2.43-.021,2.43.046-.1,5-2.969-.057,2.968.089-.15,5-5-.15.15-4.981h0l.1-4.978h0l.044-4.976h0l-.006-4.981-.054-5.005Zm-192.2,5.62,3.556,3.515-3.519,3.56-1.752-1.732,1.679,1.807-3.667,3.407-3.4-3.663,3.588-3.333h0Zm-42.539,16.1,0,0,2.06,1.139,4.259,1.429,4.683.549-.577,4.967-4.972-.583.3-2.575-.82,2.452-4.746-1.592.821-2.447-1.242,2.247-2.193-1.212Zm19.835,1.3,1.409,4.8-4.8,1.41-1.408-4.8ZM265.1,1623.988l4.951.7-.7,4.957-4.951-.7Zm-2.324,14.689,4.906.963-.964,4.912-2.614-.513,2.6.566-1.063,4.891-2.551-.554,2.539.609-1.167,4.868-2.5-.6,2.488.655-1.275,4.84-2.457-.647,2.442.705-1.389,4.809-2.425-.7,2.407.761-.755,2.389-4.767-1.507,0-.005.738-2.334,1.372-4.749,1.263-4.794,1.153-4.812,1.052-4.839h0Zm-7.277,28.768,4.726,1.632-1.634,4.731-2.373-.819,2.349.885-1.764,4.684-2.348-.884,2.322.953-1.9,4.631-2.317-.951,2.287,1.022-2.041,4.57-2.286-1.021,2.252,1.094-1.095,2.254-4.5-2.185,0-.005,1.067-2.2,2.009-4.5,1.871-4.56,1.737-4.613Zm-16.712,35.545,4.137,2.808-2.811,4.141-2.07-1.405,2.013,1.486-2.973,4.027-4.023-2.969,2.936-3.978Zm-153.33,97.431,3.315,3.743-3.722,3.3-3.67,3.379-3.387-3.678,3.682-3.391,1.634,1.775-1.6-1.806Zm-40.9,44.587,4.066,2.91-2.9,4.053-2.812,4.091L40.18,1860.2l-2.649,4.206-4.23-2.665,2.668-4.235,2.146,1.352L36,1857.467l2.753-4.18L40.9,1854.7l-2.12-1.457,2.835-4.125,2.163,1.486-2.134-1.527Zm-13.889,21.119,4.342,2.479-2.482,4.347-2.349,4.349-4.4-2.375,2.378-4.4,2.081,1.124-2.053-1.172Zm-6.053,11.093,4.46,2.26,0,.005-1.13,2.23h0l-2.1,4.459h0L23.9,1890.7h0l-1.729,4.581-4.678-1.766,1.768-4.683,2.352.888-2.306-.988,1.972-4.6,2.439,1.045-2.4-1.128,2.13-4.53,2.133,1-2.1-1.065Zm19.681,36.1,4.659,1.83-1.828,4.654-4.659-1.83Zm9.332,3.7,4.639,1.88-1.1,2.706,1.107-2.7,4.631,1.9-1.9,4.626-4.631-1.9h0l-4.631-1.877Zm27.781,11.527,4.606,1.959-1.957,4.6-4.606-1.959Z" transform="translate(23 11)" fill="#35b9be"/></g></svg>