<svg xmlns="http://www.w3.org/2000/svg" xmlns:xlink="http://www.w3.org/1999/xlink" width="443.872" height="1572.62" viewBox="0 0 443.872 1572.62"><defs><style>.a{fill:#e7739a;}.b{fill:#fff;}.c{filter:url(#c);}.d{filter:url(#a);}</style><filter id="a" x="0" y="0" width="443.872" height="1572.62" filterUnits="userSpaceOnUse"><feOffset dx="5" dy="3" input="SourceAlpha"/><feGaussianBlur stdDeviation="3" result="b"/><feFlood flood-opacity="0.161"/><feComposite operator="in" in2="b"/><feComposite in="SourceGraphic"/></filter><filter id="c" x="0" y="0" width="443.872" height="1572.62" filterUnits="userSpaceOnUse"><feOffset dx="5" dy="3" input="SourceAlpha"/><feGaussianBlur stdDeviation="10" result="d"/><feFlood flood-opacity="0.161" result="e"/><feComposite operator="out" in="SourceGraphic" in2="d"/><feComposite operator="in" in="e"/><feComposite operator="in" in2="SourceGraphic"/></filter></defs><g data-type="innerShadowGroup"><g class="d" transform="matrix(1, 0, 0, 1, 0, 0)"><path class="a" d="M272.179-38C25.5,27.76,43.558-5.191,43.558-5.191s-102.011,189.352-14.9,184.838S173.1,303.1,173.1,303.1,146.02,602.36,67.706,567.83,0,612.967,0,612.967l93.209,146.02S252.77,379.381,248.256,847.908,370.128,1114.9,370.128,1114.9L352.073,1299.96s-167.235-162.269-132.479-57.1,28.662,189.352,28.662,189.352c7.166,47.338-136.992-109.684-136.992-109.684s-127.739,73.348-48.071,109.684S-31.6,1516.62-31.6,1516.62H391.116L394.276-38Z" transform="translate(35.6 44)"/></g><g class="c" transform="matrix(1, 0, 0, 1, 0, 0)"><path class="b" d="M272.179-38C25.5,27.76,43.558-5.191,43.558-5.191s-102.011,189.352-14.9,184.838S173.1,303.1,173.1,303.1,146.02,602.36,67.706,567.83,0,612.967,0,612.967l93.209,146.02S252.77,379.381,248.256,847.908,370.128,1114.9,370.128,1114.9L352.073,1299.96s-167.235-162.269-132.479-57.1,28.662,189.352,28.662,189.352c7.166,47.338-136.992-109.684-136.992-109.684s-127.739,73.348-48.071,109.684S-31.6,1516.62-31.6,1516.62H391.116L394.276-38Z" transform="translate(35.6 44)"/></g></g></svg>