<svg xmlns="http://www.w3.org/2000/svg" xmlns:xlink="http://www.w3.org/1999/xlink" width="1366" height="768" viewBox="0 0 1366 768"><defs><clipPath id="a"><rect x="13" y="6" width="1366.083" height="766" fill="none"/></clipPath><filter id="b" x="-15.861" y="-8.5" width="1392.443" height="788.53" filterUnits="userSpaceOnUse"><feOffset dx="5" dy="3" input="SourceAlpha"/><feGaussianBlur stdDeviation="3" result="c"/><feFlood flood-opacity="0.161"/><feComposite operator="in" in2="c"/></filter><filter id="d" x="-15.861" y="-8.5" width="1392.443" height="788.53" filterUnits="userSpaceOnUse"><feOffset dx="20" dy="15" input="SourceAlpha"/><feGaussianBlur stdDeviation="7.5" result="e"/><feFlood flood-opacity="0.161" result="f"/><feComposite operator="out" in="SourceGraphic" in2="e"/><feComposite operator="in" in="f"/><feComposite operator="in" in2="SourceGraphic"/></filter><clipPath id="h"><rect width="1366" height="768"/></clipPath></defs><g id="g" clip-path="url(#h)"><rect width="1366" height="768" fill="#fff"/><g transform="translate(-13 -6)" clip-path="url(#a)" style="isolation:isolate"><g data-type="innerShadowGroup"><g transform="matrix(1, 0, 0, 1, 13, 6)" filter="url(#b)"><path d="M300.473,0c744.66,97.233,801.576-31.067,738.257,114.545s-180.236,94.861-180.236,94.861-170.75,195.888,0,183.319,537.863,30.118,238.813,117.153S1015.014,744.185,790.43,606.4s-268.694,28.221-268.694,28.221S325.848,358.338,275.1,549.483s-284.583-39.6-284.583-39.6l14.229,252.8c0,6.4,1354.854,0,1354.854,0V0H316.125" transform="translate(0.49)" fill="#e7739a" stroke="#34b9be" stroke-width="5"/></g><path d="M300.473,0c744.66,97.233,801.576-31.067,738.257,114.545s-180.236,94.861-180.236,94.861-170.75,195.888,0,183.319,537.863,30.118,238.813,117.153S1015.014,744.185,790.43,606.4s-268.694,28.221-268.694,28.221S325.848,358.338,275.1,549.483s-284.583-39.6-284.583-39.6l14.229,252.8c0,6.4,1354.854,0,1354.854,0V0H316.125" transform="translate(13.486 6)" fill="#e7739a"/><g transform="matrix(1, 0, 0, 1, 13, 6)" filter="url(#d)"><path d="M300.473,0c744.66,97.233,801.576-31.067,738.257,114.545s-180.236,94.861-180.236,94.861-170.75,195.888,0,183.319,537.863,30.118,238.813,117.153S1015.014,744.185,790.43,606.4s-268.694,28.221-268.694,28.221S325.848,358.338,275.1,549.483s-284.583-39.6-284.583-39.6l14.229,252.8c0,6.4,1354.854,0,1354.854,0V0H316.125" transform="translate(0.49)" fill="#fff"/></g><path d="M300.473,0c744.66,97.233,801.576-31.067,738.257,114.545s-180.236,94.861-180.236,94.861-170.75,195.888,0,183.319,537.863,30.118,238.813,117.153S1015.014,744.185,790.43,606.4s-268.694,28.221-268.694,28.221S325.848,358.338,275.1,549.483s-284.583-39.6-284.583-39.6l14.229,252.8c0,6.4,1354.854,0,1354.854,0V0H316.125" transform="translate(13.486 6)" fill="none" stroke="#34b9be" stroke-width="5"/></g></g></g></svg>