<svg xmlns="http://www.w3.org/2000/svg" xmlns:xlink="http://www.w3.org/1999/xlink" width="500   " height="1949.823" viewBox="0 0 384.558 1949.823"><defs><style>.a{fill:#e7739a;}.b{fill:#fff;}.c{filter:url(#a);}</style><filter id="a" x="0" y="0" width="384.558" height="1949.823" filterUnits="userSpaceOnUse"><feOffset dx="20" dy="5" input="SourceAlpha"/><feGaussianBlur stdDeviation="2.5" result="b"/><feFlood flood-color="#d30186" flood-opacity="0.161" result="c"/><feComposite operator="out" in="SourceGraphic" in2="b"/><feComposite operator="in" in="c"/><feComposite operator="in" in2="SourceGraphic"/></filter></defs><g data-type="innerShadowGroup"><path class="a" d="M87.933,7.646c-168.22,84.11-99.4,152.927-68.817,217.921s214.1,15.293,122.342,149.1S-30.585,581.124,38.232,600.24s129.988,11.47,26.762,118.519S87.933,821.984,87.933,821.984s91.756,401.434-49.7,187.336C34.7,1003.968,159.8,1277.2,156.751,1273.12c-123.09-165.032-40.239,238.089-118.519,129.988-80.287-110.872-53.525,233.214,26.762,183.513s103.226-210.275,133.811-38.232-45.878,168.22-160.574,202.629-30.585,156.75-19.116,156.75,122.342,49.7,122.342,49.7L313.5,1865.713v-504.66L267.623,1189.01,313.5,959.619,237.037,737.874,363.2,539.069l-68.817-164.4,19.116-164.4V84.11L237.037,7.646Z" transform="translate(21.356 -7.646)"/><g class="c" transform="matrix(1, 0, 0, 1, 0, 0)"><path class="b" d="M87.933,7.646c-168.22,84.11-99.4,152.927-68.817,217.921s214.1,15.293,122.342,149.1S-30.585,581.124,38.232,600.24s129.988,11.47,26.762,118.519S87.933,821.984,87.933,821.984s91.756,401.434-49.7,187.336C34.7,1003.968,159.8,1277.2,156.751,1273.12c-123.09-165.032-40.239,238.089-118.519,129.988-80.287-110.872-53.525,233.214,26.762,183.513s103.226-210.275,133.811-38.232-45.878,168.22-160.574,202.629-30.585,156.75-19.116,156.75,122.342,49.7,122.342,49.7L313.5,1865.713v-504.66L267.623,1189.01,313.5,959.619,237.037,737.874,363.2,539.069l-68.817-164.4,19.116-164.4V84.11L237.037,7.646Z" transform="translate(21.36 -7.65)"/></g></g></svg>