
    <svg xmlns="http://www.w3.org/2000/svg" version="1.1" x="0" y="0" width="182.5" height="2375.5"
        viewBox="0 0 182.5 2375.5" enable-background="new 0 0 182.5 2375.5" xml:space="preserve">
        
        <path fill="#34b9be" stroke="#34b9be" stroke-miterlimit="10"
            d="M80.3 71c0 0 6.5-4-4.5-12.2 0 0-30-32.5 14.5-43.7 0 0 24.5 0.8 25.3 23 0 0 4.8 21.3-9.5 33 0 0-4.5-0.5-7.5-2.2 0 0-6.7 0.3-3.5 8l13.8 18.5c0 0 7.5 17.3 0.8 36.5 0 0-3.7 25-10.5 30.3 0 0-33.5 50.8-33.1 51.5S65 227.8 30 235.5l-9.5 4.5v3l11 17.5H18l-5-22.2c0 0-1-2.2 3-3 0 0 11-4.2 19-16 0 0 9.3-10.2 18-7.7 0 0 5-53 7.3-54S59 145.5 82 112C82 112 63.8 72.8 80.3 71zM46.8 113.8L75.5 79c0 0 2.8-7.7 7.5 0 0 0 2 9.5-4.5 9.8L55 117l7.4 33.1 -8.7 22.6 -14.5 11c0 0-3-1 4-9.7 0 0 4.3-2.5 3.8-11 0 0-1.7-2.5 9.5-11.2C56.5 151.8 43.5 113.8 46.8 113.8zM109.3 133L133.5 156c0 0 4.5 3 0 15s-5.7-10-5.7-10 -6.8-3.7-6.5-10c0 0 3.4-1.8-13.3-11L109.3 133zM105.2 151l18.2 55.4c0 0 15 9.9 26 37.6 0 0-1.7 13.2 28-6.4 0 0 8-1.1-15 21.9H155c0 0-37.8-26.6-34.7-39.8l-35.6-35.9L105.2 151z" />
       <path fill="#34b9be" opacity="0.9" stroke="#34b9be" stroke-miterlimit="10"
            d="M86.6 349.1c0 0 5.9-5.3 0.2-10.8 0 0-17.2-11.5-8.7-28.2 0 0 18-28.7 42.5-4.2 0 0 10.8 23.1-6.5 41.5 0 0-1 1.9-10.7-1.8 0 0-7.5 2.6 2.5 13.1 0 0 21.3 16.4 10 49.9 0 0-25 72-45.2 88.8 0 0-0.2 9-57.2 7.8l-7.2 19.5H2.5V495c0 0 8.5 0 9.8 5 0 0 0.8 3.7 11.8-3 0 0 26.5-11.5 36.3-9.5 0 0-1.7-64.7 29.5-97.2C89.8 390.3 72.8 359.4 86.6 349.1zM85 358.6c0 0 3.3-14.1 9.8-2.1 0 0 0.3 5.3-3.2 8.3l-7.7 29.9c0 0-5.2 38.1-10.7 40.3l-11.7 15.3c0 0-3.7-1.5 3.5-20.2 0 0 6-12.2 9.8-12.5l-0.2-22.8L85 358.6zM111.8 419.8l23.9 50.4L128 512l21.5 12.5 -26.7 1c0 0-10.5-47-2-55.2l-23.3-15.8L111.8 419.8zM114.7 412.2l9.4 24c0 0 14 15.9 5.6 21.2" />
        <path fill="#34b9be" opacity="0.8" stroke="#34b9be" stroke-miterlimit="10"
            d="M83.6 760.8l-18.3 20 25.9 8.8H56c0 0 6.1-15.5 12.5-28.9 4.4-9.2 8.9-17.4 11.5-18.8 0 0-18.7-36.7-13.5-53.2 0 0 5.5-29.7 20-41.2 0 0-12.7-36.2 2-46 0 0 5.5-5.2-3.7-13.2 0 0-23.1-18.7 2.7-40 0 0 30.6-12.2 36.8 18 0 0 0.3 36-10 35.3 0 0-17-9.2-9.5 7.8 0 0 24 17 15.5 50.5 0 0-17.2 24 2.5 54 0 0 8 23.5 8 25.5s5.8 10.8-15.5 15.8l-30.5 4.5c0 0 13.3-8 11.8-15 0 0 10.5-5 19-4 0 0-14-12.7-16.5-13.2s-2.7 16.8-2.7 16.8" />
        <polygon fill="#34b9be" stroke="none" stroke-miterlimit="10" points="56 762.5 68.5 758.8 58.8 782.6 " />
        <path fill="#34b9be" opacity="0.6"  stroke="#34b9be" stroke-miterlimit="10"
            d="M93.7 616.7c0 0 3.3-11.4-7.2-7.9 0 0-2.7 4.1 0 7.9L86.8 649c0 0-4.3 18.8 3 43.5 0 0-12 10.5 2 28 0 0 0.5 7.3 2 4.5s2.8-17.2 2.8-17.2 -2.5-14.2-1.2-19.5S93.7 616.7 93.7 616.7z" />
        <path fill="#d30186" opacity="0.6"  stroke="none" stroke-miterlimit="10"
            d="M83.7 858c0 0 7-3.3 0-12.7 0 0-37-28.3 9-46 0 0 33.3-1.7 26.7 31.3 0 0-0.3 25-11 25.3 0 0-13-3.7-8.3 7.3 0 0 23.3 16.7 14 53L110.7 928c0 0-7.7 18.7 15.7 42.3 0 0 21.7 22.7 9.3 27.7l-41.7 24.8 21 18.6 -32.7-10c0 0 26.7-40.3 35-39l-30-20c0 0-12 26.3-20.7 33.7 0 0-9.3 29.3-7.3 37l20 10.5 -29.3 1c0 0-7.7-42.2 5.3-55.2 0 0 2.9-70.8 28-98.7 0 0-5.1-13.7-5.9-25.7C76.9 867.2 78.2 860.2 83.7 858zM76 876.3l-12.7 28.3c0 0-4.1 4 8.4 14.7l2.9-6c0 0-4-2.7-5.3-4s10.8-19.2 10.8-19.2M80.1 874.3c0 0-5.1-3.3 2.2-8 0 0 5.3-0.8 5.3 5.7l18.3 38.3 22 23.7c0 0 8.7-5.3 19.7 21.3 0 0-3.7 2.7-20.3-12.3 0 0-28.7-24-29.7-30L80.1 874.3z" />
        <path fill="#d30186" opacity="0.5"  stroke="none" stroke-miterlimit="10"
            d="M104.4 1191.1c0 0-6.9 29.3 21.5 92l11.4 27.3 31.4-11 -21.3 19.1H139c0 0-32-33.5-32.7-46.8l-28.3-26.7c0 0-11.9 29-14.2 31l-42.2 25V1312l14.2 6.5H15c0 0-12.2-21.9-5.9-22.9l12.3-0.3c0 0 15.7-25.7 29.3-29.7 0 0-5.7-50.7 24.7-89.3 0 0-3.7-15.8-4.1-29.7 -0.3-9.4 0.9-17.8 5.8-20 0 0 7-5.3-1.3-12.7 0 0-22.6-14.3 2-37.7 0 0 35.3-16 37.3 22 0 0-1.3 27.7-12.7 26.7 0 0-14.3-8-7.7 7 0 0 23.7 16.7 12 51.3M69.7 1146l-15.7 31.7 -1.3 28c0 0-10.3 4.7-16 22.7 0 0-1 6.3 10.3-3.3l9.6-12.4 5-33.3 10.7-19.7M74.7 1142c0 0-5.7-5.3 2.3-8.7 0 0 4.2 0.3 3.1 4.3l16.5 35 29.3 29c0 0 16.7-0.7 13.7 25.3 0 0-4 2.3-4-2.7s-13-6.7-10.3-16.7l-35.7-30L74.7 1142z" />
        <path fill="#e7739a" opacity="0.5"  stroke="none" stroke-miterlimit="10"
            d="M113.1 1485.3l22.3 43L127 1569l21.3 13.5H122c0 0-11.5-41.6-3-55.5l-24.3-15 -21 35.7c0 0 0.3 18-62 15.3l-7.4 18 -3.7 1.5V1553l12.5 3.3c0 0 33.7-15.3 45.7-12 0 0 1-63.3 13-70.7l16-25.3c0 0-18-33.3-1-44.7 0 0 1.1-4.7-3-9.4 0 0-29-27 12-42.3 0 0 33.7 1.3 27.3 26 0 0-1.7 29-13.7 26 0 0-11.3-5.7-7.7 7.7 0 0 27.3 21 12.3 60.3M79.6 1429.7l-7 22.5 1.8 17.1 7.3-11.6c0 0-0.2-11.1 3-15.6L79.6 1429.7zM84.8 1423.7c0 0-9.1-7 3.6-11.3 0 0 10.3 1.3 6.3 11.3 0 0 13.7 53.7 31.7 70.7 0 0 11.5 20.8 1.6 19.5l-12.5-24.1c0 0-20.7-26.7-21.1-34.9L84.8 1423.7z" />
        <path fill="#e7739a" opacity="0.6"  stroke="none" stroke-miterlimit="10"
            d="M78.3 1660c0 0 7-5.7-1.7-15 0 0-27-23.3 4.3-41.3 0 0 30.3-6.7 34 17.3 0 0 0.7 35-10.7 37.3 0 0-15.7-7-9.3 7 0 0 30 19.3 9.7 71.3l-13 19.9c0 0 2 50.5-15 59.8l-20.7 22 24.7 9.2H49c0 0 13.7-43.8 24-49.5 0 0-38.3-44 6-96.3C79 1701.7 65 1674 78.3 1660zM77.7 1673.3c0 0-7-5.7 2.7-8.7 0 0 8 1.7 3.3 8.7 0 0 7.3 58.7 1.5 79.7 0 0 0.9 21.3-3.1 28.3 0 0-2.9 3-3.8-7.7 0 0-7.2-11.3 1.4-21.3 0 0-6.3-32.5-0.7-42.9L77.7 1673.3zM103.7 1738.1l18 54.5c0 0 4 13-10.7 18.7l-35.3 6 11.7-17.9 18.6-2.1 -15.8-11.6" />
        <polyline fill="#e7739a" opacity="0.7"  stroke="none" stroke-miterlimit="10" points="59.4 1819.3 45.9 1823.3 51.3 1840.5 " />
        <path fill="#e7739a" opacity="0.8"  stroke="none" stroke-miterlimit="10"
            d="M79.2 1915.3c0 0 6.3-3.8-3.4-14.5 0 0-25.3-29.7 5.3-42.7 0 0 45.6-11.7 32.6 43.6 0 0-1.7 12.3-10.7 13.3 0 0-15.3-11.3-6.3 9 0 0 27.7 12.8 6.7 72.2 0 0-0.2 0.4-0.7 1.1 -4.9 8.3-35.3 59.8-39 61.6L54 2100.3l20 10.2H49c0 0-13.7-36.8 3.7-55.8 0 0-1.6-81.3 27.3-97.7C80 1957 61.7 1926.8 79.2 1915.3zM104.7 1997.7l24.3 37.3c0 0 15.7 15-5.3 24.3l-34 19.3 20 18 -29.7-10.7c0 0 19.7-38.3 33.1-38.8l-29-18.7M76.3 1924c0 0 2.7-10 8.3-5.7 0 0 8 3.7-1.7 8.7l-16.7 39 25.3 26.1 5.7 23.5c0 0-4.7 2.7-6.3-6s-8.7-10-7.7-17.5 -1.5 0-1.5 0l-23.8-22.1c0 0-3-2.3 0-7.7L76.3 1924zM109 1976.4c0 0 27.7 17.6 33.7 35.6 0 0 0.3 5.3-5 0 0 0-22.3-9.5-17-14.3 2.5-2.3 0.3-2.3 0.3-2.3s-7.8-5-13.7-8.2" />
        <path fill="#e7739a" opacity="0.9"  stroke="none" stroke-miterlimit="10"
            d="M74.6 2185c0 0 7.9-5-2.5-13 0 0-18.4-19-0.1-34.7 0 0 23.3-18.3 38 5.7 0 0 7.7 13-1.7 34 0 0-2.3 7.8-9.3 5.2 0 0-14-5.6-7 9.8 0 0 30 17.1 8 68.4l-36.1 68.9c0 0-9.8 13.3-18.1 15l-26.3 13V2370l14.2 5.5H13c0 0-13.4-21.5-4.7-20.8l8.7-1.3c0 0 19.3-26.7 31.3-30 0 0-3.2-54 24.3-88.7C72.7 2234.7 64.2 2189.3 74.6 2185zM100.2 2262.7l34.8 104.3 29.4-10.3c0 0 1.4 2-1.6 5l-16.6 13.8H137c0 0-30-31.5-31-43.5l-28.6-28.6M72.7 2197.3c0 0 3-13 9.3-7 0 0 5.7 10 0 12.7l-20 31 -7.2 36.7c0 0-2.1 9.7-8.1 12.7l-11.1 5c0 0 4.1-16.7 8.1-18.7l8-7 1-27.3L72.7 2197.3zM105.7 2244c0 0 19 16.2 23.3 16.4 0 0 14 8.6 9.3 23.6 0 0-3 7.4-5-2.9 0 0-11.8-8.2-10.9-15.8l-18.2-16.5" />
    </svg>
