<svg xmlns="http://www.w3.org/2000/svg" xmlns:xlink="http://www.w3.org/1999/xlink" width="1920" height="600" viewBox="0 0 1920 600"><defs><clipPath id="b"><rect width="1920" height="600"/></clipPath></defs><g id="a" clip-path="url(#b)"><rect width="1920" height="600"/><path d="M78.308,37.7c43.5,55.106,249.426,179.819,249.426,179.819s333.535,310.332,333.535,23.2,429.245,63.807,429.245,63.807,139.214,240.725,226.224,107.311,327.734-249.426,321.934-107.311S1914.2,440.846,1914.2,440.846V2.9H5.8S34.8-17.4,78.308,37.7Z" fill="#fff"/><path d="M20.353-1.254A44.657,44.657,0,0,1,37.4,2.4H1914.7V441.336l-.49.01c-.016,0-1.639.033-4.573.033-7.191,0-22.151-.194-41.551-1.493a633.24,633.24,0,0,1-68.3-8.157c-28.278-5.034-53.4-11.88-74.681-20.348a217.249,217.249,0,0,1-33.378-16.484,138.141,138.141,0,0,1-27.342-21.635,102.048,102.048,0,0,1-11.486-14.279,89.488,89.488,0,0,1-8.482-16.149,87.952,87.952,0,0,1-5.05-18.124,98.636,98.636,0,0,1-1.2-20.2c.884-21.668-3.967-38.176-14.421-49.065A46.806,46.806,0,0,0,1605,243.739a76.209,76.209,0,0,0-24.825-3.74,141.954,141.954,0,0,0-30.529,3.7,242.155,242.155,0,0,0-34.115,10.523,356.21,356.21,0,0,0-36.236,16.487c-12.244,6.379-24.659,13.64-36.9,21.582-12.3,7.979-24.451,16.661-36.114,25.8-11.86,9.3-23.258,19.108-33.877,29.156a416.758,416.758,0,0,0-30.19,31.633,323.062,323.062,0,0,0-25.055,33.234A123.032,123.032,0,0,1,1302.5,430.7a81.757,81.757,0,0,1-15.422,12.566,62.976,62.976,0,0,1-16.009,7.116,60.354,60.354,0,0,1-16.393,2.241,70.3,70.3,0,0,1-14.937-1.669,90.991,90.991,0,0,1-14.932-4.71,142.693,142.693,0,0,1-29.322-16.778c-16.917-12.266-34.691-29.363-52.827-50.817-7.122-8.425-14.317-17.55-21.387-27.123-5.655-7.658-11.244-15.617-16.609-23.657-8.688-13.019-13.993-22.071-14.539-23.009-1.083-.882-14.5-11.782-35.662-27.555-12.9-9.619-26.115-19.14-39.27-28.3-16.443-11.45-32.843-22.364-48.743-32.439-40.467-25.642-77.984-46.07-111.508-60.718a402.241,402.241,0,0,0-55.553-19.993,240.772,240.772,0,0,0-26.143-5.6,163.1,163.1,0,0,0-24.427-1.976h-.02a113.961,113.961,0,0,0-18.421,1.43,85.569,85.569,0,0,0-16.737,4.466,70.558,70.558,0,0,0-14.816,7.777A68.039,68.039,0,0,0,686.16,153.33,78.815,78.815,0,0,0,675.871,168.6a106.031,106.031,0,0,0-7.664,19.46A155.4,155.4,0,0,0,663.421,212a234.945,234.945,0,0,0-1.652,28.721,302.829,302.829,0,0,1-1.525,31.367,196.914,196.914,0,0,1-4.414,26.113,128.584,128.584,0,0,1-7.064,21.2,88.03,88.03,0,0,1-9.477,16.613,67.523,67.523,0,0,1-11.648,12.352,61.835,61.835,0,0,1-13.563,8.409,68.492,68.492,0,0,1-15.21,4.793,87.308,87.308,0,0,1-16.593,1.52,120.774,120.774,0,0,1-19.192-1.636,172.12,172.12,0,0,1-20.2-4.617,280.137,280.137,0,0,1-42.2-16.462c-25.229-12.045-53.136-28.836-82.948-49.909-11.709-8.277-23.745-17.243-35.771-26.648-9.621-7.524-19.258-15.344-28.644-23.245-15.479-13.029-25.2-22.012-25.883-22.648-1.764-1.07-52.8-32.064-108.374-69.23C186,126.586,157.832,106.652,135.331,89.446c-13.365-10.22-24.853-19.58-34.146-27.82C90.95,52.551,83.121,44.607,77.916,38.014,64.163,20.594,50.464,8.948,37.2,3.4H4.214l1.3-.91A18.478,18.478,0,0,1,9.4.6,31.736,31.736,0,0,1,20.353-1.254ZM34.629,2.4A42.239,42.239,0,0,0,20.353-.254,30.754,30.754,0,0,0,9.792,1.527c-.82.3-1.511.6-2.066.873ZM1913.7,3.4H39.676C52.443,9.326,65.559,20.749,78.7,37.394c9.9,12.537,29.155,29.782,57.238,51.257,22.484,17.194,50.637,37.115,83.675,59.211,56.258,37.625,107.865,68.921,108.38,69.233l.044.027.038.035c.1.09,9.926,9.219,25.893,22.658,9.377,7.893,19.005,15.706,28.617,23.222,12.014,9.395,24.036,18.35,35.732,26.618,29.765,21.039,57.622,37.8,82.8,49.819a279.135,279.135,0,0,0,42.047,16.4,171.149,171.149,0,0,0,20.082,4.59,119.757,119.757,0,0,0,19.031,1.623,86.307,86.307,0,0,0,16.4-1.5,67.5,67.5,0,0,0,14.988-4.722,60.842,60.842,0,0,0,13.344-8.273,66.53,66.53,0,0,0,11.475-12.17A87.058,87.058,0,0,0,647.851,319a127.612,127.612,0,0,0,7.008-21.031,195.907,195.907,0,0,0,4.391-25.979,301.8,301.8,0,0,0,1.52-31.263,235.98,235.98,0,0,1,1.659-28.844,156.478,156.478,0,0,1,4.818-24.1,107.04,107.04,0,0,1,7.738-19.644,79.822,79.822,0,0,1,10.42-15.459,69.045,69.045,0,0,1,12.855-11.539,71.552,71.552,0,0,1,15.026-7.888,86.587,86.587,0,0,1,16.933-4.519,114.983,114.983,0,0,1,18.583-1.443h.021a164.071,164.071,0,0,1,24.578,1.987,241.684,241.684,0,0,1,26.253,5.619,403.23,403.23,0,0,1,55.7,20.044C888.921,169.6,926.485,190.059,967,215.729c15.913,10.083,32.325,21.005,48.78,32.464,13.164,9.166,26.385,18.694,39.3,28.319,21.984,16.389,35.623,27.523,35.758,27.633l.071.058.046.079c.053.092,5.437,9.377,14.56,23.046,5.357,8.028,10.937,15.974,16.583,23.619,7.057,9.555,14.239,18.662,21.346,27.07,18.082,21.39,35.8,38.43,52.646,50.646a141.7,141.7,0,0,0,29.111,16.659,89.968,89.968,0,0,0,14.766,4.658,69.281,69.281,0,0,0,14.723,1.646,59.358,59.358,0,0,0,16.121-2.2,61.974,61.974,0,0,0,15.754-7A80.751,80.751,0,0,0,1301.788,430a122.029,122.029,0,0,0,14.531-18.434,324.1,324.1,0,0,1,25.133-33.338,417.8,417.8,0,0,1,30.263-31.709c10.641-10.069,22.062-19.9,33.947-29.216,11.686-9.162,23.861-17.862,36.187-25.857,12.269-7.959,24.712-15.236,36.984-21.63a357.244,357.244,0,0,1,36.339-16.533,243.17,243.17,0,0,1,34.257-10.566A142.944,142.944,0,0,1,1580.173,239a77.206,77.206,0,0,1,25.151,3.794,47.8,47.8,0,0,1,19.147,11.96c10.649,11.093,15.595,27.847,14.7,49.8a97.648,97.648,0,0,0,1.184,19.994,86.987,86.987,0,0,0,4.993,17.918,88.485,88.485,0,0,0,8.387,15.968,101.018,101.018,0,0,0,11.374,14.138,137.136,137.136,0,0,0,27.145,21.475,216.252,216.252,0,0,0,33.224,16.407c21.215,8.443,46.276,15.27,74.487,20.292a632.265,632.265,0,0,0,68.188,8.144c19.371,1.3,34.306,1.491,41.484,1.491,1.994,0,3.379-.015,4.063-.025Z" fill="#707070"/></g></svg>